<svg width="409" height="409" viewBox="0 0 409 409" fill="none" xmlns="http://www.w3.org/2000/svg">
<g clip-path="url(#clip0)">
<path d="M4.96801 194.381L168.169 31.1801C172.059 27.2905 177.934 26.1209 182.993 28.2425C188.08 30.3369 191.398 35.3146 191.398 40.809V114.522C191.398 117.922 190.12 121.186 187.835 123.688L114.612 204.01L187.835 284.332C190.12 286.835 191.398 290.099 191.398 293.499V367.212C191.398 372.706 188.08 377.684 182.993 379.778C181.334 380.458 179.539 380.812 177.798 380.812C174.262 380.812 170.781 379.424 168.169 376.84L4.96801 213.639C-0.336029 208.308 -0.336029 199.713 4.96801 194.381Z" fill="black"/>
<path d="M222.57 194.409L385.771 31.1801C389.661 27.2905 395.536 26.1209 400.595 28.2425C405.682 30.3369 409 35.3146 409 40.809V114.522C409 117.922 407.722 121.186 405.437 123.688L332.214 204.01L405.437 284.332C407.722 286.835 409 290.099 409 293.499V367.212C409 372.706 405.682 377.684 400.595 379.778C398.936 380.458 397.141 380.812 395.4 380.812C391.864 380.812 388.382 379.424 385.771 376.84L222.57 213.639C217.266 208.335 217.266 199.713 222.57 194.409Z" fill="black"/>
</g>
<defs>
<clipPath id="clip0">
<rect width="408.01" height="408.01" fill="white" transform="matrix(-1 0 0 1 409 0)"/>
</clipPath>
</defs>
</svg>
