<svg width="31" height="33" viewBox="0 0 31 33" fill="none" xmlns="http://www.w3.org/2000/svg">
<path d="M3.76819 6.18003L4.68794 4.9951C4.23558 4.64398 3.62278 4.58104 3.1085 4.83288C2.59422 5.08472 2.26819 5.60739 2.26819 6.18003H3.76819ZM3.76819 27.3099H2.26819C2.26819 27.8825 2.59422 28.4052 3.1085 28.657C3.62278 28.9089 4.23558 28.8459 4.68794 28.4948L3.76819 27.3099ZM17.3792 16.745L18.299 17.9299C18.665 17.6457 18.8792 17.2084 18.8792 16.745C18.8792 16.2816 18.665 15.8442 18.299 15.56L17.3792 16.745ZM2.26819 6.18003V27.3099H5.26819V6.18003H2.26819ZM4.68794 28.4948L18.299 17.9299L16.4595 15.56L2.84844 26.1249L4.68794 28.4948ZM18.299 15.56L4.68794 4.9951L2.84844 7.36496L16.4595 17.9299L18.299 15.56ZM25.6014 5.12354V28.3664H28.6014V5.12354H25.6014Z" fill="#091127"/>
</svg>
