<svg width="31" height="33" viewBox="0 0 31 33" fill="none" xmlns="http://www.w3.org/2000/svg">
<path d="M27.2318 27.3099L26.3121 28.4948C26.7644 28.846 27.3772 28.9089 27.8915 28.657C28.4058 28.4052 28.7318 27.8825 28.7318 27.3099H27.2318ZM27.2318 6.18005H28.7318C28.7318 5.60742 28.4058 5.08474 27.8915 4.8329C27.3772 4.58106 26.7644 4.644 26.3121 4.99512L27.2318 6.18005ZM13.6207 16.745L12.7009 15.56C12.3349 15.8442 12.1207 16.2816 12.1207 16.745C12.1207 17.2084 12.3349 17.6458 12.7009 17.9299L13.6207 16.745ZM28.7318 27.3099V6.18005H25.7318V27.3099H28.7318ZM26.3121 4.99512L12.7009 15.56L14.5404 17.9299L28.1516 7.36498L26.3121 4.99512ZM12.7009 17.9299L26.3121 28.4948L28.1516 26.125L14.5404 15.56L12.7009 17.9299ZM5.39846 28.3664V5.12356H2.39846V28.3664H5.39846Z" fill="#091127"/>
</svg>
